<?xml version="1.0" encoding="UTF-8"?>
<svg xmlns="http://www.w3.org/2000/svg" xmlns:xlink="http://www.w3.org/1999/xlink" viewBox="0 0 32 32">
  <defs>
    <style>
      .cls-1 {
        mask: url(#mask);
      }

      .cls-2 {
        fill: url(#linear-gradient-5);
      }

      .cls-3 {
        fill: url(#linear-gradient-4);
      }

      .cls-4 {
        fill: url(#linear-gradient-2);
      }

      .cls-5 {
        fill: #6d6e71;
      }

      .cls-6 {
        isolation: isolate;
      }

      .cls-7 {
        mask: url(#mask-2);
      }

      .cls-8 {
        mask: url(#mask-1);
      }

      .cls-9 {
        fill: #d51c29;
      }

      .cls-10 {
        fill: url(#linear-gradient-6);
        opacity: .5;
      }

      .cls-10, .cls-11 {
        mix-blend-mode: multiply;
      }

      .cls-12 {
        fill: #fff;
      }

      .cls-13 {
        fill: url(#linear-gradient-8);
        stroke: #231f20;
        stroke-miterlimit: 10;
        stroke-width: .1px;
      }

      .cls-14 {
        fill: url(#linear-gradient-3);
      }

      .cls-14, .cls-15 {
        mix-blend-mode: darken;
        opacity: .55;
      }

      .cls-15 {
        fill: url(#linear-gradient-7);
      }

      .cls-11 {
        fill: url(#linear-gradient);
        opacity: .34;
      }

      .cls-16 {
        fill: #febe10;
      }
    </style>
    <linearGradient id="linear-gradient" x1="10" y1="9.4" x2="16.03" y2="12.88" gradientUnits="userSpaceOnUse">
      <stop offset="0" stop-color="#000"/>
      <stop offset=".09" stop-color="#060606"/>
      <stop offset=".22" stop-color="#171717"/>
      <stop offset=".36" stop-color="#333"/>
      <stop offset=".52" stop-color="#5a5a5a"/>
      <stop offset=".69" stop-color="#8c8c8c"/>
      <stop offset=".86" stop-color="#c8c8c8"/>
      <stop offset="1" stop-color="#fff"/>
    </linearGradient>
    <linearGradient id="linear-gradient-2" x1="12.37" y1="10.53" x2="19.52" y2="11.79" gradientUnits="userSpaceOnUse">
      <stop offset=".04" stop-color="#febe10"/>
      <stop offset=".49" stop-color="#eb741b"/>
      <stop offset="1" stop-color="#d51c29"/>
    </linearGradient>
    <linearGradient id="linear-gradient-3" x1="-2664.02" y1="17.82" x2="-2657.32" y2="17.82" gradientTransform="translate(-2641.33) rotate(-180) scale(1 -1)" gradientUnits="userSpaceOnUse">
      <stop offset="0" stop-color="#000"/>
      <stop offset="1" stop-color="#fff"/>
    </linearGradient>
    <linearGradient id="linear-gradient-4" x1="7.39" y1=".16" x2="23.53" y2="13.7" gradientUnits="userSpaceOnUse">
      <stop offset=".37" stop-color="#231f20"/>
      <stop offset=".43" stop-color="#2d292a"/>
      <stop offset=".54" stop-color="#484546"/>
      <stop offset=".67" stop-color="#757273"/>
      <stop offset=".83" stop-color="#b2b1b1"/>
      <stop offset="1" stop-color="#fff"/>
    </linearGradient>
    <mask id="mask" x="5.01" y="2.99" width="20.9" height="7.87" maskUnits="userSpaceOnUse">
      <rect class="cls-3" x="5.01" y="2.99" width="20.9" height="7.87"/>
    </mask>
    <linearGradient id="linear-gradient-5" x1="4.47" y1="7.02" x2="17.08" y2="7.02" gradientUnits="userSpaceOnUse">
      <stop offset="0" stop-color="#fff"/>
      <stop offset=".63" stop-color="#6b6869"/>
      <stop offset=".96" stop-color="#231f20"/>
    </linearGradient>
    <mask id="mask-1" x="4.47" y="3.1" width="21.34" height="7.85" maskUnits="userSpaceOnUse">
      <rect class="cls-2" x="4.47" y="3.1" width="12.61" height="7.85"/>
    </mask>
    <linearGradient id="linear-gradient-6" x1="-1229.97" y1="14.88" x2="-1223.84" y2="14.88" gradientTransform="translate(-1207.87) rotate(-180) scale(1 -1)" xlink:href="#linear-gradient"/>
    <linearGradient id="linear-gradient-7" x1="9.29" y1="16.53" x2="15.98" y2="16.53" gradientTransform="matrix(1,0,0,1,0,0)" xlink:href="#linear-gradient-3"/>
    <linearGradient id="linear-gradient-8" x1="1704.63" y1="-654.94" x2="1726.99" y2="-654.94" gradientTransform="translate(-734.05 421.94) scale(.43 .63)" xlink:href="#linear-gradient-5"/>
    <mask id="mask-2" x="-4.05" y="1.98" width="20.03" height="27.45" maskUnits="userSpaceOnUse">
      <rect class="cls-13" x="1.07" y="2.7" width="9.64" height="17.96" transform="translate(10.51 -.56) rotate(47.43)"/>
    </mask>
  </defs>
  <g class="cls-6">
    <g id="Layer_5" data-name="Layer 5">
      <g>
        <path class="cls-5" d="M15.38.39h1.25c.15.11.3.22.35.41.05.2.09.4.14.6.02.06.05.12.08.18.51-.05.99.13,1.47.14.23-.31.23-.75.7-.92.17.02.38.02.58.09.2.07.42.07.62.19.19.12.3.25.3.47,0,.25,0,.51,0,.77.48.2.95.39,1.42.59.19-.22.36-.43.53-.63.05,0,.09,0,.11,0,.28-.17.5-.01.73.12.22.13.45.26.67.4,0,.03,0,.07.03.09.14.18.14.36.06.58-.07.19-.2.37-.14.6.38.3.76.6,1.12.88.25-.03.43-.21.63-.33.25-.16.44-.13.66.02.06.04.13.09.18.14.2.19.39.39.59.58,0,.05-.01.09,0,.11.13.16.06.32-.02.46-.12.23-.27.44-.4.67.16.19.33.37.48.57.16.2.3.41.43.6.09,0,.14.01.18,0,.1-.03.2-.07.3-.1q.39-.14.77.04s.04.02.06.03c0,.02,0,.05,0,.07.2.26.35.55.49.84.08.15.08.27.01.41-.02.05-.02.11-.03.18-.19.17-.4.36-.61.55.19.46.39.93.58,1.4.25,0,.5,0,.76,0,.23,0,.46.14.53.45.02.08.05.15.06.22.06.3.21.59.16.81-.1.29-.25.4-.45.48-.17.07-.32.19-.46.27,0,.16.03.29.05.42.06.33.07.67.1,1.05.13.04.28.1.44.13.41.08.5.13.72.42v1.25c-.11.15-.22.3-.41.35-.2.05-.4.09-.6.14-.06.02-.12.05-.15.07-.03.35-.06.68-.09,1,0,.02,0,.06,0,.07-.14.14-.03.3-.06.4.31.25.75.25.91.71-.02.16-.02.38-.09.58-.07.2-.08.42-.19.61-.11.19-.24.3-.47.3-.25,0-.51,0-.76,0-.2.48-.4.95-.6,1.41.1.07.21.07.23.2.01.06.13.1.2.15.08.06.16.13.18.16.03.12.06.17.06.23.01.11.05.23.02.32-.06.16-.15.31-.24.46-.1.18-.22.35-.33.52-.09.05-.19.1-.31.16-.32.06-.6-.24-.96-.21-.3.38-.6.77-.89,1.15.13.25.25.51.4.76.07.12.06.21,0,.34-.16.38-.48.62-.78.87-.21.18-.46.17-.69.04-.2-.12-.4-.26-.57-.37-.41.32-.79.62-1.19.93.06.22.1.43.18.63.1.23.04.4-.11.57-.2.23-.48.34-.73.49-.18.11-.38.19-.59.13-.35-.11-.44-.49-.71-.69-.47.2-.93.39-1.4.58,0,.24,0,.49,0,.73,0,.26-.14.51-.38.56-.39.09-.77.27-1.17.2-.31-.09-.37-.38-.5-.61-.05-.08-.08-.17-.13-.27-.15.02-.3.02-.45.06-.33.07-.67.07-1.04.1-.02.03-.06.09-.07.15-.05.23-.09.46-.19.68-.1.22-.25.33-.49.33-.35,0-.69,0-1.02,0-.26-.16-.33-.22-.39-.41-.06-.2-.09-.4-.14-.6-.02-.06-.05-.12-.08-.18-.49.04-.94-.11-1.44-.14-.09.15-.22.3-.28.47-.08.21-.21.35-.45.45-.17-.03-.39-.03-.59-.09-.17-.05-.34-.07-.5-.13-.26-.09-.41-.29-.41-.57,0-.24,0-.48,0-.73-.48-.2-.95-.39-1.42-.59-.19.22-.36.43-.5.59-.14.05-.21.1-.29.11-.23.04-.4-.09-.58-.19-.22-.13-.45-.26-.66-.39-.04-.09-.08-.16-.11-.24-.02-.07-.07-.16-.04-.22.08-.17.06-.37.15-.53.06-.1.04-.19.04-.3-.39-.3-.78-.61-1.17-.92-.24.19-.48.33-.74.44-.12.06-.21.05-.34,0-.39-.18-.65-.5-.9-.84-.14-.19-.13-.37,0-.57.14-.21.25-.44.36-.64-.3-.39-.58-.77-.89-1.17-.1.02-.23.04-.35.09-.14.05-.3.04-.43.13-.04.02-.12-.02-.18-.03-.06-.01-.13-.03-.14-.03-.35-.21-.42-.56-.62-.82-.06-.08-.11-.16-.14-.25-.02-.09,0-.18,0-.28.1-.14.17-.32.31-.41.16-.1.26-.24.42-.36-.25-.46-.42-.93-.59-1.4h-.9c-.12-.07-.21-.1-.27-.16-.06-.06-.09-.15-.14-.24-.03-.38-.26-.75-.21-1.12.21-.39.58-.48.91-.66-.02-.17.05-.36-.07-.52.05-.32-.12-.62-.07-.93-.04-.04-.07-.09-.11-.1-.2-.05-.4-.09-.6-.14-.15-.04-.3-.06-.35-.25,0-.04-.08-.07-.13-.1,0-.42,0-.83,0-1.25.12-.15.23-.31.44-.35.13-.02.26-.04.39-.07.12-.03.24-.09.33-.13.03-.34.06-.64.09-.94,0-.02,0-.05,0-.07.13-.16.04-.34.06-.48-.28-.15-.52-.29-.76-.42,0-.04,0-.07,0-.08-.17-.21-.16-.43-.07-.68.08-.2.11-.42.17-.65.03-.05.06-.14.12-.2.07-.07.16-.11.27-.17h.92c.11-.49.37-.94.54-1.38-.2-.33-.59-.44-.7-.81,0-.1,0-.22.05-.32.19-.37.37-.74.66-1.02.13-.03.25-.1.34-.07.17.06.37.06.53.15.1.06.19.04.3.03.3-.39.6-.78.9-1.16-.16-.27-.31-.52-.45-.77-.05-.09-.04-.18,0-.28.17-.39.49-.63.8-.89.26-.22.5-.12.74.02.18.11.34.23.49.32.41-.32.81-.63,1.21-.94-.02-.09-.04-.17-.06-.24-.06-.21-.12-.41-.17-.62-.03-.14.11-.23.14-.36,0-.02.02-.04.02-.04.29-.17.56-.32.82-.49.14-.08.3-.13.44-.07.14.06.34.07.38.28.17.09.22.32.41.4.46-.19.92-.39,1.39-.58,0-.25,0-.49,0-.73,0-.26.14-.51.38-.56.39-.08.77-.27,1.18-.2.2.06.3.22.38.39.08.16.16.33.24.49.08,0,.16,0,.24,0,.07-.01.14-.06.21-.06.34-.03.67-.06,1.05-.09.04-.13.1-.28.13-.44.08-.41.13-.5.42-.72Z"/>
        <g>
          <polyline class="cls-9" points="9.87 26.08 15.74 23.55 15.98 25.76 16.32 23.56 22.09 26.1 25.81 24.06 25.81 7.59 15.98 5.39 6.19 7.59 6.19 24.06"/>
          <polyline class="cls-9" points="15.98 29.44 19.67 27.42 15.97 25.85 15.97 25.84 12.29 27.41"/>
          <polygon class="cls-11" points="9.87 9.62 16 6.97 15.98 12.97 11.22 16 9.87 9.62"/>
          <polygon class="cls-4" points="19.67 10.95 15.98 12.97 12.29 10.95 15.99 9.36 19.67 10.95"/>
          <polygon class="cls-14" points="22.68 25.77 22.09 26.1 19.66 25.03 19.67 27.42 15.98 29.44 15.98 6.21 22.68 9.6 22.68 25.77"/>
          <polygon class="cls-16" points="16 6.97 22.11 9.62 25.81 7.59 15.98 3.44 6.19 7.59 9.87 9.62 16 6.97"/>
          <g class="cls-1">
            <polygon class="cls-9" points="16 6.97 22.11 9.62 25.81 7.59 15.98 3.44 6.19 7.59 9.87 9.62 16 6.97"/>
          </g>
          <g class="cls-8">
            <polygon class="cls-12" points="16 6.97 22.11 9.62 25.81 7.59 15.98 3.44 6.19 7.59 9.87 9.62 16 6.97"/>
          </g>
          <polyline class="cls-10" points="22.09 15.48 16.32 12.95 15.97 15.23 19.67 16.81 22.09 15.48"/>
          <polygon class="cls-15" points="15.74 23.55 15.98 25.74 15.98 6.97 9.87 9.62 9.29 25.76 9.87 26.08 15.74 23.55"/>
          <polygon class="cls-9" points="22.09 9.63 22.09 15.52 19.67 16.85 19.67 10.95 15.98 12.97 15.98 29.44 19.67 27.42 19.67 20.74 22.09 19.42 22.09 26.1 25.81 24.06 25.81 7.59 22.09 9.63"/>
          <polygon class="cls-16" points="12.29 10.95 11.08 15.33 9.87 9.62 6.19 7.59 6.19 24.06 9.87 26.08 9.87 16.92 11.08 20.69 12.29 17.11 12.29 27.41 15.98 29.44 15.98 12.97 12.29 10.95"/>
          <g class="cls-7">
            <polygon class="cls-12" points="12.29 10.95 11.08 15.33 9.87 9.62 6.19 7.59 6.19 24.06 9.87 26.08 9.87 16.92 11.08 20.69 12.29 17.11 12.29 27.41 15.98 29.44 15.98 12.97 12.29 10.95"/>
          </g>
        </g>
      </g>
    </g>
  </g>
</svg>